<svg width="113" height="30" viewBox="0 0 113 30" fill="none" xmlns="http://www.w3.org/2000/svg">
<path d="M24.8679 29.5407H5.69165C4.38402 29.5367 3.13142 29.0155 2.20679 28.0909C1.28215 27.1662 0.760548 25.9133 0.756592 24.6057V5.42967C0.760812 4.12222 1.28218 2.86953 2.20679 1.94511C3.13139 1.02069 4.3842 0.499622 5.69165 0.495667H24.8679C26.1753 0.499623 27.4278 1.02073 28.3523 1.94518C29.2767 2.86962 29.798 4.12231 29.802 5.42967V24.6057C29.8029 25.2539 29.6756 25.8959 29.428 26.4949C29.1803 27.094 28.817 27.6382 28.3586 28.0966C27.9003 28.5549 27.3561 28.9183 26.7571 29.166C26.158 29.4136 25.5161 29.5406 24.8679 29.5397" fill="#8989A2"/>
<path d="M24.8668 0.478668H15.2789V15.0007H29.8009V5.41266C29.7998 4.10414 29.2794 2.84952 28.3541 1.92426C27.4289 0.998993 26.1744 0.47872 24.8658 0.477661" fill="#A0A0BD"/>
<path d="M15.2789 29.5407H24.8668C26.1744 29.5367 27.4275 29.0155 28.3522 28.0909C29.2768 27.1662 29.7979 25.9133 29.8019 24.6057V15.0177H15.2799L15.2789 29.5407Z" fill="#BCBCD8"/>
<path d="M55.267 19.0827C55.32 19.0835 55.372 19.0951 55.4204 19.1168C55.4687 19.1384 55.512 19.1697 55.5478 19.2087L56.2851 20.0137C55.7167 20.6734 55.0096 21.1999 54.2148 21.5557C53.2878 21.9471 52.2876 22.1357 51.2817 22.1087C50.3476 22.1217 49.421 21.9451 48.5571 21.5897C47.7657 21.2599 47.0547 20.7637 46.4721 20.1347C45.8801 19.4836 45.4247 18.7201 45.1337 17.8897C44.8076 16.965 44.6464 15.9902 44.6577 15.0097C44.6463 14.0263 44.8195 13.0494 45.1679 12.1297C45.4862 11.29 45.973 10.5244 46.5981 9.87969C47.2238 9.24507 47.9748 8.74812 48.8037 8.42069C49.7066 8.06623 50.6701 7.88997 51.6401 7.90168C52.5441 7.87961 53.4429 8.04121 54.2827 8.37669C55.012 8.68617 55.6805 9.12299 56.2568 9.66669L55.6459 10.5297C55.6037 10.5914 55.551 10.6455 55.4907 10.6897C55.4153 10.7365 55.3272 10.7585 55.2387 10.7527C55.1426 10.749 55.0501 10.7169 54.9721 10.6607C54.8781 10.5987 54.7661 10.5237 54.6381 10.4327C54.5101 10.3417 54.3561 10.2457 54.1811 10.1417C53.9832 10.0271 53.7756 9.92972 53.561 9.85068C53.2899 9.75142 53.0109 9.67516 52.727 9.62269C52.3657 9.55744 51.9989 9.52664 51.6318 9.53069C50.9325 9.52218 50.2385 9.65235 49.5898 9.91369C48.9848 10.1592 48.4392 10.5312 47.9897 11.0047C47.5279 11.5027 47.1733 12.0901 46.9477 12.7307C46.6899 13.4624 46.5632 14.2339 46.5737 15.0097C46.5612 15.7983 46.6878 16.583 46.9477 17.3277C47.1706 17.9629 47.517 18.5478 47.9667 19.0487C48.3908 19.5136 48.9125 19.8793 49.4941 20.1197C50.0964 20.3683 50.7424 20.4937 51.394 20.4887C51.7669 20.4913 52.1393 20.4669 52.5087 20.4157C52.8214 20.3715 53.1287 20.2951 53.4257 20.1877C53.7015 20.087 53.965 19.9551 54.2109 19.7947C54.469 19.6246 54.7136 19.4351 54.9428 19.2277C55.0291 19.1409 55.1448 19.0892 55.267 19.0827Z" fill="#8989A2"/>
<path d="M60.4056 7.66867V21.9527H58.6801V7.66867H60.4056Z" fill="#8989A2"/>
<path d="M67.3408 11.9747C67.8983 11.9703 68.4513 12.0721 68.9707 12.2747C69.4564 12.4641 69.8962 12.7549 70.2607 13.1277C70.6367 13.5224 70.926 13.9915 71.1099 14.5047C71.3203 15.1042 71.4217 15.7364 71.4097 16.3717C71.426 16.5571 71.3962 16.7436 71.3228 16.9147C71.2842 16.9639 71.2336 17.0023 71.1758 17.0262C71.118 17.05 71.0547 17.0584 70.9927 17.0507H64.4561C64.4576 17.6 64.5426 18.1459 64.708 18.6697C64.8429 19.0916 65.0605 19.4823 65.3486 19.8187C65.6132 20.1215 65.9458 20.3575 66.3189 20.5077C66.7201 20.6645 67.1478 20.742 67.5786 20.7357C67.9578 20.7434 68.3359 20.6928 68.6997 20.5857C68.9778 20.4997 69.2485 20.391 69.5088 20.2607C69.7037 20.1625 69.8932 20.054 70.0767 19.9357C70.1904 19.8494 70.3265 19.7974 70.4688 19.7857C70.5334 19.7829 70.5979 19.7966 70.6558 19.8255C70.7137 19.8543 70.7631 19.8974 70.7998 19.9507L71.2837 20.5807C71.0652 20.8441 70.8071 21.0715 70.5181 21.2547C70.2187 21.4465 69.8986 21.6042 69.564 21.7247C69.2219 21.848 68.8693 21.9404 68.5107 22.0007C68.1553 22.0615 67.7957 22.0923 67.4351 22.0927C66.7934 22.0995 66.1561 21.9827 65.5586 21.7487C64.996 21.5255 64.4895 21.1814 64.0747 20.7407C63.6397 20.266 63.3079 19.7062 63.1006 19.0967C62.8566 18.3721 62.7389 17.6111 62.752 16.8467C62.7465 16.1934 62.8529 15.544 63.0669 14.9267C63.2627 14.3555 63.5709 13.8295 63.9736 13.3797C64.3756 12.9373 64.8684 12.5867 65.418 12.3517C66.0258 12.0936 66.6806 11.9652 67.3408 11.9747ZM67.3799 13.2457C67.02 13.2257 66.6597 13.2795 66.3213 13.4036C65.9829 13.5278 65.6732 13.7197 65.4116 13.9677C64.9015 14.5176 64.5879 15.2208 64.519 15.9677H69.8628C69.8668 15.5946 69.811 15.2232 69.6978 14.8677C69.5961 14.5502 69.4312 14.2566 69.2129 14.0047C68.9978 13.7614 68.7307 13.5693 68.4316 13.4427C68.0982 13.3057 67.7403 13.2387 67.3799 13.2457Z" fill="#8989A2"/>
<path d="M80.8277 21.9527H80.0606C79.9211 21.9583 79.7824 21.9317 79.6549 21.8747C79.5979 21.8393 79.55 21.791 79.5152 21.7336C79.4805 21.6763 79.4597 21.6115 79.4547 21.5447L79.2618 20.6327C79.0031 20.8653 78.751 21.074 78.505 21.2587C78.2632 21.4403 78.0028 21.5961 77.7286 21.7237C77.4515 21.8519 77.1609 21.9479 76.8619 22.0097C76.5253 22.0782 76.1825 22.1117 75.839 22.1097C75.4758 22.1121 75.1141 22.0578 74.7677 21.9487C74.4484 21.8491 74.1533 21.685 73.9 21.4667C73.6467 21.2427 73.4459 20.9654 73.3126 20.6547C73.1593 20.2866 73.0852 19.8903 73.0948 19.4917C73.0967 19.0948 73.2072 18.706 73.4146 18.3677C73.6716 17.9655 74.027 17.6355 74.4469 17.4087C75.0318 17.0888 75.6607 16.8576 76.3136 16.7227C77.2413 16.5283 78.1881 16.4384 79.1358 16.4547V15.6837C79.1798 15.0637 79.0063 14.4478 78.6456 13.9417C78.465 13.7391 78.2407 13.5806 77.9893 13.4783C77.738 13.376 77.4666 13.3327 77.1959 13.3517C76.8352 13.342 76.4757 13.3962 76.1339 13.5117C75.8731 13.6052 75.6227 13.7255 75.3868 13.8707C75.1768 14.004 74.9958 14.1237 74.8438 14.2297C74.7141 14.3285 74.5566 14.3844 74.3936 14.3897C74.2845 14.3922 74.1776 14.36 74.088 14.2977C74.0021 14.2386 73.931 14.1606 73.88 14.0697L73.568 13.5167C74.0738 13.0181 74.6696 12.6201 75.3238 12.3437C75.9865 12.0783 76.695 11.9464 77.4088 11.9557C77.9101 11.9465 78.4079 12.0387 78.8727 12.2267C79.283 12.3962 79.6509 12.6543 79.9498 12.9827C80.2494 13.3229 80.4739 13.7226 80.608 14.1557C80.7619 14.645 80.8372 15.1557 80.8316 15.6687L80.8277 21.9527ZM76.3477 20.8957C76.6284 20.8984 76.9084 20.8676 77.1817 20.8037C77.4288 20.7444 77.668 20.6564 77.8946 20.5417C78.1216 20.4262 78.3364 20.2881 78.5357 20.1297C78.7489 19.9601 78.9495 19.7753 79.1358 19.5767V17.5497C78.457 17.5405 77.7789 17.591 77.109 17.7007C76.6419 17.7752 76.1856 17.9079 75.7516 18.0957C75.4525 18.2193 75.1904 18.4176 74.9898 18.6717C74.8332 18.8868 74.7498 19.1466 74.7525 19.4127C74.7469 19.6434 74.7903 19.8727 74.879 20.0857C74.9552 20.2641 75.0714 20.4226 75.2188 20.5487C75.3647 20.6712 75.5352 20.7609 75.7188 20.8117C75.9232 20.8688 76.1345 20.8971 76.3468 20.8957H76.3477Z" fill="#8989A2"/>
<path d="M83.4468 21.9527V12.1297H84.436C84.5743 12.1149 84.7126 12.1532 84.8237 12.2367C84.9093 12.3417 84.9603 12.4706 84.9697 12.6057L85.0859 14.1377C85.3741 13.5165 85.8004 12.9692 86.332 12.5377C86.8294 12.152 87.4435 11.9484 88.0728 11.9607C88.3215 11.9577 88.5697 11.9887 88.8101 12.0527C89.0239 12.1119 89.2291 12.1982 89.4209 12.3097L89.1978 13.5997C89.1857 13.6696 89.149 13.7327 89.0938 13.7772C89.0385 13.8217 88.9688 13.8446 88.8979 13.8417C88.7553 13.831 88.6149 13.8001 88.481 13.7497C88.2251 13.6795 87.96 13.6484 87.6948 13.6577C87.1449 13.6396 86.6081 13.8264 86.188 14.1817C85.7351 14.6021 85.3879 15.1236 85.1748 15.7037V21.9587L83.4468 21.9527Z" fill="#8989A2"/>
<path d="M91.3218 21.9527V7.66867H93.0566V13.5457C93.4506 13.0845 93.9248 12.6986 94.4565 12.4067C95.0131 12.1116 95.6357 11.9629 96.2656 11.9747C96.7966 11.9669 97.3227 12.0762 97.8066 12.2947C98.2706 12.5116 98.6741 12.8396 98.981 13.2497C99.3273 13.7212 99.5804 14.2544 99.7275 14.8207C99.9124 15.5248 100.001 16.2508 99.9897 16.9787C99.9957 17.6635 99.8975 18.3453 99.6987 19.0007C99.5237 19.5884 99.2392 20.1378 98.8599 20.6197C98.4983 21.0722 98.0416 21.4396 97.522 21.6957C96.9674 21.9638 96.3576 22.0984 95.7417 22.0887C95.1813 22.1056 94.6262 21.9786 94.1289 21.7197C93.6735 21.4635 93.2779 21.113 92.9688 20.6917L92.8818 21.5837C92.8702 21.691 92.817 21.7895 92.7339 21.8584C92.6508 21.9273 92.5446 21.9611 92.437 21.9527H91.3218ZM95.7046 13.3527C95.185 13.3414 94.6727 13.4758 94.2256 13.7407C93.7703 14.0303 93.374 14.4035 93.0576 14.8407V19.5927C93.3188 19.9761 93.6744 20.286 94.0898 20.4927C94.4877 20.6713 94.9199 20.7607 95.356 20.7547C95.7615 20.7766 96.1661 20.6988 96.5347 20.5281C96.9032 20.3575 97.2241 20.0991 97.4697 19.7757C98.0106 18.9487 98.2689 17.9688 98.2065 16.9827C98.2158 16.4282 98.1588 15.8746 98.0366 15.3337C97.9475 14.929 97.7814 14.5453 97.5469 14.2037C97.3486 13.9214 97.0771 13.6984 96.7617 13.5587C96.4264 13.4162 96.0649 13.3457 95.7007 13.3517L95.7046 13.3527Z" fill="#8989A2"/>
<path d="M104.412 9.05068C104.414 9.21283 104.38 9.37338 104.312 9.52068C104.244 9.66468 104.153 9.79595 104.041 9.90868C103.928 10.0218 103.794 10.1125 103.648 10.1757C103.498 10.2417 103.336 10.2758 103.172 10.2757C103.01 10.2764 102.85 10.2423 102.702 10.1757C102.557 10.1119 102.425 10.0213 102.314 9.90868C102.201 9.79717 102.11 9.66558 102.046 9.52068C101.98 9.37282 101.945 9.21265 101.946 9.05068C101.946 8.88556 101.98 8.72225 102.046 8.57069C102.108 8.4212 102.199 8.28533 102.314 8.17069C102.425 8.05824 102.557 7.96768 102.702 7.90369C102.85 7.83723 103.01 7.80313 103.172 7.80369C103.336 7.80369 103.498 7.83775 103.648 7.90369C103.794 7.96709 103.928 8.05769 104.041 8.17069C104.155 8.28653 104.246 8.42206 104.312 8.57069C104.379 8.7217 104.413 8.88537 104.412 9.05068ZM104.025 12.1347V21.9577H102.297V12.1347H104.025Z" fill="#8989A2"/>
<path d="M110.046 22.1077C109.719 22.1291 109.391 22.0824 109.083 21.9705C108.775 21.8586 108.494 21.684 108.257 21.4577C107.809 20.9407 107.584 20.2678 107.631 19.5857V13.5737H106.448C106.352 13.5766 106.258 13.5438 106.186 13.4817C106.148 13.4447 106.119 13.3999 106.101 13.3505C106.082 13.3011 106.075 13.2482 106.08 13.1957V12.5077L107.689 12.3077L108.089 9.27268C108.099 9.18025 108.144 9.09518 108.215 9.03468C108.291 8.97164 108.387 8.93888 108.486 8.94268H109.36V12.3277H112.173V13.5787H109.361V19.4787C109.347 19.6444 109.367 19.8112 109.419 19.9693C109.47 20.1274 109.552 20.2737 109.661 20.3997C109.763 20.5 109.884 20.5783 110.018 20.6299C110.151 20.6815 110.294 20.7052 110.437 20.6997C110.596 20.7031 110.755 20.6783 110.906 20.6267C111.025 20.5844 111.14 20.5309 111.25 20.4667C111.347 20.408 111.429 20.3547 111.497 20.3067C111.548 20.2647 111.611 20.2392 111.677 20.2337C111.728 20.238 111.777 20.2555 111.82 20.2844C111.862 20.3133 111.897 20.3526 111.919 20.3987L112.419 21.2227C112.108 21.51 111.742 21.7326 111.344 21.8777C110.929 22.0323 110.489 22.1102 110.046 22.1077Z" fill="#8989A2"/>
</svg>
