<svg width="86" height="30" viewBox="0 0 86 30" fill="none" xmlns="http://www.w3.org/2000/svg">
<path fill-rule="evenodd" clip-rule="evenodd" d="M21.5627 16.8213C21.4831 17.0365 21.4619 17.269 21.5013 17.495C21.5406 17.7211 21.6391 17.9327 21.7867 18.1083C21.9553 18.2373 22.1501 18.3277 22.3574 18.3733C22.5647 18.4189 22.7795 18.4186 22.9867 18.3723C23.8139 18.1918 24.671 18.1976 25.4957 18.3893C25.7068 18.4809 25.8954 18.6176 26.0483 18.7897C26.2011 18.9618 26.3145 19.1652 26.3805 19.3857C26.4465 19.6062 26.4635 19.8384 26.4304 20.0662C26.3973 20.294 26.3148 20.5118 26.1887 20.7043C25.86 21.2465 25.4522 21.7366 24.9787 22.1583C23.4731 23.9078 22.1515 25.8074 21.0347 27.8273C20.5417 28.6273 19.8887 29.6933 18.8507 29.7993C18.3825 29.8669 17.906 29.7552 17.5166 29.4865C17.1273 29.2178 16.8537 28.812 16.7507 28.3503C16.6097 27.3713 17.5567 26.4373 18.2027 25.7943C18.6567 25.3403 19.0807 24.8723 19.5027 24.3843C19.9957 23.8203 20.4617 23.2583 20.9027 22.6593C21.4177 21.9593 22.2737 20.8133 21.6417 19.9483C21.1837 19.3123 20.2097 19.4233 19.5737 19.6773C18.7634 20.0602 18.0674 20.6483 17.5547 21.3833C16.9963 22.2081 16.4868 23.0649 16.0287 23.9493C15.6701 24.68 15.1533 25.3215 14.5157 25.8273C14.1893 26.0389 13.7951 26.1196 13.4118 26.0535C13.0285 25.9873 12.6843 25.7791 12.4477 25.4703C12.2645 25.0887 12.1906 24.6637 12.234 24.2426C12.2774 23.8215 12.4365 23.4206 12.6937 23.0843C13.0906 22.4967 13.5548 21.9574 14.0767 21.4773C14.8577 20.6773 15.6497 19.8823 16.4087 19.0593C16.7887 18.6373 17.1657 18.2213 17.5087 17.7873C17.8197 17.3873 18.2877 16.8633 18.1497 16.3083C17.8887 15.2633 16.2367 15.6423 15.5617 15.9733C14.6111 16.5185 13.7688 17.2338 13.0767 18.0833C12.3232 18.9539 11.6353 19.8791 11.0187 20.8513C9.71269 22.7983 8.50669 24.8253 7.15869 26.7423C6.59669 27.5423 5.92669 28.5093 4.89869 28.7143C4.6512 28.7665 4.39547 28.7656 4.14835 28.7117C3.90123 28.6579 3.66833 28.5523 3.465 28.4018C3.26167 28.2514 3.09252 28.0596 2.96871 27.8391C2.8449 27.6185 2.76923 27.3742 2.74669 27.1223C2.73984 26.2124 3.07415 25.333 3.68369 24.6573C4.15035 24.0507 4.62702 23.4533 5.11369 22.8653C6.41369 21.2923 7.72368 19.7173 9.05768 18.1823C10.1887 16.8663 11.2757 15.5203 12.3387 14.1373C12.9387 13.3433 13.5517 12.5623 14.1037 11.7373C14.5768 10.9222 15.1855 10.1937 15.9037 9.58333C16.2092 9.32099 16.5895 9.16131 16.9907 9.12686C17.392 9.0924 17.7939 9.18492 18.1397 9.39133C18.9727 10.0373 18.5617 11.2353 18.2157 12.0193C17.8697 12.8033 17.5377 13.7893 18.5317 14.1663C19.2317 14.4373 20.0107 14.2203 20.6957 14.5663C21.08 14.7836 21.3772 15.1273 21.5368 15.5389C21.6963 15.9506 21.7083 16.4048 21.5707 16.8243" fill="#8989A2"/>
<path fill-rule="evenodd" clip-rule="evenodd" d="M7.6977 16.8853C9.32214 14.5261 11.0828 12.2636 12.9707 10.1093C14.5657 8.29234 16.2487 6.55234 17.9007 4.78034C18.5581 4.15924 18.9612 3.31598 19.0317 2.41434C19.0472 2.19404 19.0163 1.97293 18.941 1.76532C18.8657 1.55771 18.7476 1.36823 18.5944 1.20912C18.4413 1.05002 18.2564 0.924833 18.0518 0.84167C17.8472 0.758508 17.6274 0.719217 17.4067 0.72634C16.9413 0.806544 16.499 0.986979 16.1103 1.25514C15.7216 1.5233 15.3959 1.87278 15.1557 2.27934C14.5177 3.09634 13.9707 3.97834 13.3977 4.83634C12.8507 5.64734 12.2347 6.40434 11.6527 7.19034C11.0117 8.06534 10.3907 8.96034 9.6807 9.77334C9.1287 10.3973 8.4207 11.5163 7.4627 11.4983C7.29197 11.491 7.12738 11.4325 6.99027 11.3306C6.85315 11.2286 6.74983 11.0877 6.6937 10.9263C6.62425 10.7173 6.61041 10.4938 6.65354 10.2778C6.69667 10.0617 6.79529 9.86068 6.9397 9.69434C7.38798 9.0653 7.88698 8.474 8.4317 7.92634C9.00047 7.45705 9.48274 6.89186 9.8567 6.25634C9.99265 5.93845 10.0377 5.58906 9.98687 5.24708C9.93602 4.90509 9.79126 4.58393 9.5687 4.31934C9.4313 4.15207 9.24933 4.02713 9.04386 3.95899C8.83839 3.89086 8.61782 3.88231 8.4077 3.93434C7.9147 4.07734 7.5747 4.57234 7.1757 4.84634C6.9097 5.02634 6.3547 5.18934 6.1897 4.79234C6.0247 4.39534 6.5177 4.00634 6.7347 3.78434C7.3347 3.16534 8.3977 2.52634 8.4587 1.57834C8.46447 1.35418 8.41407 1.13213 8.31207 0.932435C8.21008 0.732736 8.05975 0.561729 7.87476 0.434993C7.68978 0.308256 7.47602 0.229818 7.25296 0.206823C7.02991 0.183829 6.80465 0.217008 6.5977 0.30334C5.72789 0.670741 4.99812 1.30627 4.5147 2.11734C4.0487 2.77834 3.2377 3.93634 3.5457 4.78934C3.62139 4.97432 3.74707 5.13459 3.90867 5.25221C4.07026 5.36983 4.2614 5.44017 4.4607 5.45534C4.8847 5.52234 5.4717 5.29034 5.8437 5.53934C6.6887 6.10634 5.6537 7.46434 5.2717 8.00434C4.67804 8.82926 4.01783 9.60418 3.2977 10.3213C2.5437 11.0803 1.7057 11.8003 1.0277 12.6213C0.715187 12.9234 0.509915 13.3192 0.443124 13.7487C0.376332 14.1781 0.451679 14.6177 0.657697 15.0003C0.794487 15.1836 0.971875 15.3328 1.17595 15.436C1.38003 15.5393 1.60526 15.5939 1.83397 15.5956C2.06269 15.5972 2.28867 15.5459 2.49422 15.4455C2.69976 15.3452 2.87928 15.1987 3.0187 15.0173C3.56903 14.1882 4.17334 13.3961 4.8277 12.6463C4.97816 12.4886 5.1671 12.3727 5.37592 12.3101C5.58475 12.2475 5.80627 12.2404 6.0187 12.2893C6.12491 12.3292 6.22211 12.3898 6.30461 12.4677C6.38711 12.5455 6.45324 12.6391 6.49915 12.7428C6.54506 12.8465 6.56982 12.9584 6.57197 13.0718C6.57412 13.1852 6.55363 13.2979 6.5117 13.4033C6.11438 14.3343 5.50074 15.1571 4.7217 15.8033C4.0217 16.5423 3.2427 17.1783 2.5597 17.9113C2.22811 18.2291 1.9654 18.6116 1.78787 19.0351C1.61033 19.4586 1.52178 19.9141 1.5277 20.3733C1.54731 20.6071 1.62299 20.8327 1.74833 21.0309C1.87367 21.2292 2.04496 21.3944 2.2477 21.5123C2.6597 21.6678 3.10959 21.6925 3.53615 21.5832C3.96271 21.4739 4.34524 21.2358 4.6317 20.9013C5.55185 19.9453 6.36592 18.8925 7.0597 17.7613L7.6977 16.8853Z" fill="#8989A2"/>
<path fill-rule="evenodd" clip-rule="evenodd" d="M25.2396 4.18336C24.7466 4.69636 24.1996 5.16936 23.6986 5.66236C23.1976 6.15536 22.4666 6.91436 22.6986 7.68336C22.7658 7.84345 22.8713 7.9846 23.0058 8.09442C23.1402 8.20425 23.2996 8.27938 23.4699 8.31325C23.6402 8.34711 23.8162 8.33866 23.9825 8.28864C24.1488 8.23862 24.3002 8.14856 24.4236 8.02636C24.9926 7.53336 25.4736 6.75236 26.3386 6.97836C26.7015 7.12378 26.9953 7.40211 27.1601 7.75663C27.3249 8.11115 27.3483 8.51517 27.2256 8.88636C26.9693 9.61866 26.5093 10.2626 25.8996 10.7424C25.3037 11.3517 24.7762 12.0243 24.3266 12.7484C23.9716 13.3224 23.6016 13.9194 22.8476 13.9804C22.5046 13.9786 22.1728 13.8581 21.9086 13.6393C21.6444 13.4205 21.4642 13.117 21.3986 12.7804C21.3539 12.3721 21.405 11.9591 21.5478 11.574C21.6907 11.189 21.9214 10.8426 22.2216 10.5624C22.6216 10.0694 23.1116 9.31736 22.5126 8.76236C21.8616 8.16236 20.9666 8.57236 20.2946 8.86236C20.133 8.95753 19.9541 9.01972 19.7683 9.04534C19.5825 9.07096 19.3935 9.05949 19.2122 9.0116C19.0308 8.96371 18.8608 8.88034 18.7119 8.76633C18.563 8.65232 18.4381 8.50991 18.3446 8.34736C18.2058 8.01007 18.1619 7.64126 18.2176 7.28081C18.2732 6.92036 18.4264 6.58201 18.6606 6.30236C19.3186 5.35536 20.1966 4.57736 20.8786 3.63536C21.7486 2.47236 22.3356 0.591356 24.0926 0.729355C24.4534 0.769463 24.7971 0.904779 25.0885 1.12144C25.3798 1.3381 25.6083 1.62832 25.7506 1.96236C25.8828 2.3426 25.9051 2.75243 25.8149 3.14477C25.7247 3.53711 25.5256 3.89605 25.2406 4.18036" fill="#8989A2"/>
<path fill-rule="evenodd" clip-rule="evenodd" d="M32.6057 24.0093H35.7537V9.83734L41.4457 24.0093H42.5747L48.1627 9.84034V24.0093H51.6527V5.24835H47.0337L42.2077 18.0663L37.2777 5.26034H32.6057V24.0093ZM53.6857 24.0093H56.8607V10.2863H53.6857V24.0093ZM55.2337 8.03134C55.6563 8.01813 56.0612 7.85909 56.3799 7.58123C56.6985 7.30336 56.9112 6.9238 56.9818 6.50696C57.0524 6.09012 56.9765 5.6617 56.7672 5.29442C56.5578 4.92713 56.2277 4.64363 55.8331 4.49202C55.4384 4.34041 55.0035 4.33005 54.602 4.46268C54.2006 4.59532 53.8575 4.86279 53.6308 5.21968C53.4042 5.57657 53.308 6.0009 53.3587 6.42063C53.4093 6.84035 53.6037 7.22962 53.9087 7.52235C54.0843 7.69143 54.2921 7.82359 54.5197 7.91102C54.7472 7.99844 54.99 8.03936 55.2337 8.03134ZM58.8917 24.0093H62.0667V15.9263C62.0318 15.4914 62.0909 15.054 62.24 14.6439C62.3891 14.2338 62.6247 13.8606 62.9309 13.5497C63.237 13.2387 63.6064 12.9972 64.0141 12.8417C64.4219 12.6862 64.8583 12.6203 65.2937 12.6483C67.1817 12.6483 68.0227 13.5923 68.0227 15.6653V24.0093H71.1977V15.3813C71.1977 11.6023 69.2557 10.0023 66.4977 10.0023C65.6005 9.95034 64.7071 10.1545 63.9215 10.5909C63.1359 11.0273 62.4905 11.6781 62.0607 12.4673V10.2863H58.8907L58.8917 24.0093ZM79.2767 24.2703C82.7917 24.2703 85.1257 22.6953 85.5767 19.8113H82.5127C82.2657 21.1473 81.2807 21.9113 79.3647 21.9113C77.0037 21.9113 75.6917 20.4323 75.5857 17.8443H85.6327V16.9273C85.6327 12.0193 82.5637 10.0003 79.1527 10.0003C75.2457 10.0003 72.3317 12.8323 72.3317 17.0843V17.2943C72.2731 18.2239 72.4127 19.1552 72.7411 20.0268C73.0695 20.8983 73.5793 21.6902 74.2368 22.3499C74.8942 23.0096 75.6843 23.5221 76.5547 23.8536C77.4251 24.185 78.356 24.3277 79.2857 24.2723L79.2767 24.2703ZM75.6287 15.7173C75.9487 13.5923 77.2357 12.3033 79.1487 12.3033C81.1207 12.3033 82.3237 13.3513 82.4817 15.7123L75.6287 15.7173Z" fill="#8989A2"/>
</svg>
